<svg id="visual" viewBox="0 0 960 540" width="960" height="540" xmlns="http://www.w3.org/2000/svg" xmlns:xlink="http://www.w3.org/1999/xlink" version="1.1"><rect x="0" y="0" width="960" height="540" fill="#FFFFFF"></rect><defs><linearGradient id="grad1_0" x1="43.8%" y1="100%" x2="100%" y2="0%"><stop offset="14.444444444444446%" stop-color="#ffffff" stop-opacity="1"></stop><stop offset="85.55555555555554%" stop-color="#ffffff" stop-opacity="1"></stop></linearGradient></defs><defs><linearGradient id="grad2_0" x1="0%" y1="100%" x2="56.3%" y2="0%"><stop offset="14.444444444444446%" stop-color="#ffffff" stop-opacity="1"></stop><stop offset="85.55555555555554%" stop-color="#ffffff" stop-opacity="1"></stop></linearGradient></defs><g transform="translate(960, 540)"><path d="M-540 0C-526.5 -72.3 -512.9 -144.6 -476.7 -197.5C-440.5 -250.3 -381.6 -283.7 -336.6 -336.6C-291.6 -389.4 -260.4 -461.8 -206.6 -498.9C-152.9 -536 -76.4 -538 0 -540L0 0Z" fill="#b6e6ff"></path></g><g transform="translate(0, 0)"><path d="M540 0C541.5 79.5 543 159.1 498.9 206.6C454.8 254.2 365.1 269.8 310.4 310.4C255.7 351 236.1 416.7 190.2 459.2C144.3 501.6 72.1 520.8 0 540L0 0Z" fill="#b6e6ff"></path></g></svg>