<svg id="visual" viewBox="0 0 960 540" width="960" height="540" xmlns="http://www.w3.org/2000/svg" xmlns:xlink="http://www.w3.org/1999/xlink" version="1.1"><rect x="0" y="0" width="960" height="540" fill="#FFFFFF"></rect><defs><linearGradient id="grad1_0" x1="43.8%" y1="100%" x2="100%" y2="0%"><stop offset="14.444444444444446%" stop-color="#ffffff" stop-opacity="1"></stop><stop offset="85.55555555555554%" stop-color="#ffffff" stop-opacity="1"></stop></linearGradient></defs><defs><linearGradient id="grad2_0" x1="0%" y1="100%" x2="56.3%" y2="0%"><stop offset="14.444444444444446%" stop-color="#ffffff" stop-opacity="1"></stop><stop offset="85.55555555555554%" stop-color="#ffffff" stop-opacity="1"></stop></linearGradient></defs><g transform="translate(960, 540)"><path d="M-513 0C-479.3 -55.8 -445.5 -111.7 -425.9 -176.4C-406.3 -241.2 -400.9 -314.8 -362.7 -362.7C-324.6 -410.7 -253.8 -432.9 -187.9 -453.6C-122 -474.4 -61 -493.7 0 -513L0 0Z" fill="#fff085"></path></g><g transform="translate(0, 0)"><path d="M513 0C507.4 67 501.9 133.9 474 196.3C446 258.7 395.8 316.5 335.9 335.9C276 355.3 206.4 336.3 148.9 359.4C91.3 382.5 45.6 447.8 0 513L0 0Z" fill="#fff085"></path></g></svg>