<svg id="visual" viewBox="0 0 600 900" width="600" height="900" xmlns="http://www.w3.org/2000/svg" xmlns:xlink="http://www.w3.org/1999/xlink" version="1.1"><rect x="0" y="0" width="600" height="900" fill="#FFFFFF"></rect><defs><linearGradient id="grad1_0" x1="0%" y1="100%" x2="100%" y2="0%"><stop offset="30%" stop-color="#ffffff" stop-opacity="1"></stop><stop offset="70%" stop-color="#ffffff" stop-opacity="1"></stop></linearGradient></defs><defs><linearGradient id="grad2_0" x1="0%" y1="100%" x2="100%" y2="0%"><stop offset="30%" stop-color="#ffffff" stop-opacity="1"></stop><stop offset="70%" stop-color="#ffffff" stop-opacity="1"></stop></linearGradient></defs><g transform="translate(600, 900)"><path d="M-540.8 0C-541.6 -79.2 -542.3 -158.3 -499.7 -207C-457 -255.6 -371 -273.7 -317.5 -317.5C-264 -361.2 -243 -430.6 -195.6 -472.1C-148.1 -513.6 -74 -527.2 0 -540.8L0 0Z" fill="#DEDCDD"></path></g><g transform="translate(0, 0)"><path d="M540.8 0C514.9 68.7 489 137.4 449.9 186.4C410.8 235.3 358.5 264.5 320.3 320.3C282.1 376.1 258 458.5 207 499.7C155.9 540.8 78 540.8 0 540.8L0 0Z" fill="#DEDCDD"></path></g></svg>