<?xml version="1.0" encoding="UTF-8"?>
<svg version="1.1" xmlns="http://www.w3.org/2000/svg" width="889" height="889">
<path d="M0 0 C1.25254578 -0.00067474 2.50509155 -0.00134949 3.79559326 -0.00204468 C22.39856171 0.01387717 40.57841164 0.47252517 59 3.25 C60.83159668 3.51538574 60.83159668 3.51538574 62.70019531 3.78613281 C138.41474869 14.93818735 210.89506672 44.4806522 271 92.25 C271.83273437 92.90097656 272.66546875 93.55195312 273.5234375 94.22265625 C288.78273982 106.24738154 303.11294936 119.30057869 316.875 133 C317.57665283 133.69697998 318.27830566 134.39395996 319.0012207 135.11206055 C323.53707348 139.66193451 327.82566298 144.36765271 332 149.25 C332.46728516 149.79027832 332.93457031 150.33055664 333.41601562 150.88720703 C340.23880776 158.78582348 346.76478306 166.87922126 353 175.25 C353.49757813 175.91628418 353.99515625 176.58256836 354.5078125 177.26904297 C370.83302605 199.22866674 385.24693911 222.66146845 397.08203125 247.34912109 C397.98437993 249.21765483 398.91166492 251.07193482 399.84375 252.92578125 C413.78470895 281.07087215 423.40765283 311.38630727 430.625 341.875 C431.01534424 343.51142456 431.01534424 343.51142456 431.41357422 345.1809082 C431.75412842 346.68850708 431.75412842 346.68850708 432.1015625 348.2265625 C432.40054443 349.54261475 432.40054443 349.54261475 432.70556641 350.88525391 C433.00979724 353.32868664 432.76553425 354.92920127 432 357.25 C429.36 357.25 426.72 357.25 424 357.25 C423.68869141 355.96996094 423.68869141 355.96996094 423.37109375 354.6640625 C422.268057 350.18730249 421.1398462 345.71751419 420 341.25 C419.75862305 340.30141113 419.51724609 339.35282227 419.26855469 338.37548828 C412.54644008 312.15924133 404.13465091 286.93331827 393 262.25 C392.52691406 261.20070313 392.05382812 260.15140625 391.56640625 259.0703125 C377.40825824 227.99145102 359.31128931 198.93170458 338 172.25 C337.57638184 171.71600586 337.15276367 171.18201172 336.71630859 170.63183594 C332.11859969 164.85068757 327.31939516 159.28328475 322.3359375 153.83203125 C321.04856344 152.40903083 319.76789137 150.97949344 318.51831055 149.52319336 C313.61820392 143.81821755 308.39077733 138.49179408 303.0625 133.1875 C302.20720703 132.32833984 301.35191406 131.46917969 300.47070312 130.58398438 C295.47536179 125.5962637 290.3637435 120.83668188 285 116.25 C283.93984578 115.31296046 282.88117461 114.37423948 281.82421875 113.43359375 C272.33331277 105.08274106 262.28721751 97.58779618 252 90.25 C251.30084473 89.75081055 250.60168945 89.25162109 249.88134766 88.73730469 C239.55809573 81.40886986 228.91147557 74.66669835 218 68.25 C217.30245605 67.83927246 216.60491211 67.42854492 215.88623047 67.00537109 C167.70315687 38.88819795 113.36923132 20.27685266 58 13.25 C56.89333984 13.10191895 55.78667969 12.95383789 54.64648438 12.80126953 C36.43110313 10.4444326 18.34984794 9.96226679 0 9.9375 C-1.06289246 9.93391479 -2.12578491 9.93032959 -3.22088623 9.92663574 C-23.80943072 9.88924903 -44.2241233 11.14680858 -64.5625 14.4375 C-65.54858749 14.59514832 -65.54858749 14.59514832 -66.55459595 14.75598145 C-146.02767237 27.54792517 -220.02878029 61.68578917 -281 114.25 C-281.70511719 114.85328125 -282.41023437 115.4565625 -283.13671875 116.078125 C-295.8131437 127.02715452 -308.44307557 138.5044479 -319.30859375 151.28125 C-321.23867842 153.52781507 -323.24418139 155.69583904 -325.25 157.875 C-333.86852078 167.43318914 -341.5164017 177.79326672 -349 188.25 C-349.76828125 189.29285156 -350.5365625 190.33570313 -351.328125 191.41015625 C-357.59115067 199.95053261 -363.2028099 208.80598205 -368.60888672 217.91015625 C-369.52727302 219.45487621 -370.45068462 220.99662089 -371.37939453 222.53515625 C-379.13028712 235.37713246 -385.78816675 248.60096616 -392 262.25 C-392.39429199 263.11318848 -392.78858398 263.97637695 -393.19482422 264.86572266 C-411.60909663 305.53417333 -422.9834509 348.92656622 -428 393.25 C-428.10441406 394.1265625 -428.20882813 395.003125 -428.31640625 395.90625 C-438.86571942 487.77874953 -416.86967889 584.39832787 -369 663.25 C-368.67 663.58 -368.34 663.91 -368 664.25 C-367.68998047 663.40856445 -367.37996094 662.56712891 -367.06054688 661.70019531 C-358.57764334 638.80129488 -349.1785436 616.444695 -339 594.25 C-338.53045898 593.22229492 -338.06091797 592.19458984 -337.57714844 591.13574219 C-332.5637237 580.20560848 -327.12283135 569.52951886 -321.43798828 558.93457031 C-319.8659272 555.99970042 -318.30607205 553.05849628 -316.74609375 550.1171875 C-308.84913463 535.27966385 -300.59082729 520.6957815 -292 506.25 C-291.37947754 505.20392578 -290.75895508 504.15785156 -290.11962891 503.08007812 C-282.44108711 490.14986069 -274.62716973 477.31995944 -266.52880859 464.6484375 C-264.91354367 462.11436491 -263.30946209 459.57345583 -261.70703125 457.03125 C-256.1720984 448.26760632 -250.56789741 439.56612544 -244.77392578 430.97094727 C-231.10398076 410.68677071 -221.16134281 390.88549926 -213.875 367.5625 C-213.45980606 366.24383438 -213.45980606 366.24383438 -213.03622437 364.89852905 C-208.72456293 351.18641175 -204.67159219 337.40846971 -200.8125 323.5625 C-200.47977081 322.37027328 -200.47977081 322.37027328 -200.14031982 321.15396118 C-191.60711187 290.46329957 -183.75081326 259.58631292 -176.05728149 228.67636108 C-175.20828221 225.26702844 -174.35738859 221.85816946 -173.50662041 218.44927788 C-166.57380636 190.66692979 -159.69989323 162.86997862 -152.87311649 135.06138706 C-152.07523498 131.81174553 -151.27465549 128.56283775 -150.46961975 125.31495667 C-149.20689773 120.2155082 -147.95507167 115.11876126 -146.82421875 109.98828125 C-146.56819885 108.86129822 -146.56819885 108.86129822 -146.30700684 107.71154785 C-145.89103362 105.86602977 -145.49409066 104.01624675 -145.09960938 102.16601562 C-143.54167555 98.03458543 -140.96410195 95.23205097 -137 93.25 C-132.90202743 92.69118556 -131.23127677 93.1129471 -127.625 95.25 C-124.7336008 98.55445622 -124.64080594 99.78709104 -124.78897095 104.03283691 C-125.14754373 107.80015864 -126.01135869 111.38677885 -126.94921875 115.046875 C-127.15792665 115.89261707 -127.36663456 116.73835915 -127.58166695 117.60972977 C-128.27476523 120.40876994 -128.98108067 123.20429479 -129.6875 126 C-130.18284892 127.98911692 -130.67736833 129.97844057 -131.17111206 131.96795654 C-132.49561657 137.29508804 -133.83154164 142.6192931 -135.16982269 147.94297791 C-136.55725539 153.46983409 -137.93462704 158.99919619 -139.31298828 164.52832031 C-141.51346685 173.35031937 -143.71991618 182.17080351 -145.93066406 190.99023438 C-148.38756673 200.79306482 -150.82954581 210.59949923 -153.25958061 220.40902138 C-162.33173582 257.02926968 -171.54854016 293.55017722 -182.59887695 329.6315918 C-182.94048103 330.75701889 -182.94048103 330.75701889 -183.28898621 331.90518188 C-183.71401978 333.3047798 -184.14343968 334.70305626 -184.57807922 336.09970093 C-185.56312634 339.35566725 -186 341.79922518 -186 345.25 C-180.10537974 337.7960814 -174.26031908 330.30832284 -168.5 322.75 C-159.11515866 310.44748418 -149.51867651 298.33326346 -139.72216797 286.35595703 C-138.54818931 284.92035455 -137.37538567 283.48379057 -136.20361328 282.04638672 C-129.92606483 274.34769671 -123.64477983 266.69017247 -116.93359375 259.36328125 C-115.13112279 257.39330794 -113.37241601 255.39377944 -111.625 253.375 C-107.84326945 249.03301308 -103.94178211 244.80317154 -100.0390625 240.5703125 C-98.37973028 238.76998941 -96.74081219 236.95640643 -95.12036133 235.12084961 C-89.06149174 228.28068457 -82.695075 221.79159279 -76.22485352 215.34448242 C-74.4332405 213.5582533 -72.64706945 211.76670653 -70.86132812 209.97460938 C-65.07552004 204.18528887 -59.25060912 198.54152582 -53 193.25 C-52.04738281 192.39277344 -51.09476562 191.53554687 -50.11328125 190.65234375 C-37.10836242 179.20728966 -22.30202328 168.4017069 -6 162.25 C-5.02933594 161.88003906 -4.05867188 161.51007813 -3.05859375 161.12890625 C3.30408794 159.30054944 10.26340874 159.38581329 16.5625 161.375 C22.22883027 165.73371559 24.23933977 171.52276486 25.625 178.3125 C28.53318079 208.84839834 18.04749795 240.19780905 8.8125 268.875 C8.02704414 271.33765827 7.24181157 273.80038777 6.45678711 276.26318359 C-2.00612039 302.71092828 -10.91829372 329.00885716 -20 355.25 C-20.27612122 356.04829224 -20.55224243 356.84658447 -20.83673096 357.66906738 C-24.1458675 367.22452909 -27.54857512 376.74514222 -31 386.25 C-31.32572998 387.14813416 -31.65145996 388.04626831 -31.98706055 388.97161865 C-42.80668703 418.80064234 -53.77048053 448.57285077 -65 478.25 C-65.35880249 479.19879028 -65.71760498 480.14758057 -66.08728027 481.12512207 C-75.0717612 504.88097828 -84.11240876 528.61508942 -93.25 552.3125 C-93.59440125 553.20731079 -93.93880249 554.10212158 -94.29364014 555.02404785 C-98.71186395 566.49720751 -103.2669457 577.90297049 -108 589.25 C-103.90390762 583.13867392 -99.87177894 576.98911651 -95.875 570.8125 C-74.19201332 537.39825486 -51.86561553 504.3942313 -27 473.25 C-26.22914063 472.28320312 -25.45828125 471.31640625 -24.6640625 470.3203125 C-20.06849615 464.62826014 -15.27260345 459.16906889 -10.3203125 453.78515625 C-8.42718797 451.71674242 -6.57748296 449.62594124 -4.75 447.5 C4.04074345 437.42429869 13.33946878 427.80681008 22.75 418.3125 C23.53673096 417.51279785 24.32346191 416.7130957 25.1340332 415.88916016 C25.868396 415.15358887 26.60275879 414.41801758 27.359375 413.66015625 C28.01389648 413.00152588 28.66841797 412.34289551 29.34277344 411.66430664 C31 410.25 31 410.25 33 410.25 C33 409.59 33 408.93 33 408.25 C34.3984375 406.83984375 34.3984375 406.83984375 36.375 405.1875 C39.54484167 402.50062895 42.63410845 399.75601528 45.6875 396.9375 C64.01607303 380.43057413 90.13497854 358.66088209 116.046875 358.97265625 C122.35633128 359.56521101 127.27467748 361.67151344 131.9375 365.9375 C141.81872919 381.80735295 138.02993732 402.73422321 134.17041016 420.01953125 C125.17459038 458.13639588 111.16308131 495.32226856 97.75 532.0625 C97.24419907 533.44864502 97.24419907 533.44864502 96.72817993 534.86279297 C93.95782921 542.45159805 91.18480213 550.03943092 88.38964844 557.61914062 C71.39227847 602.71703308 71.39227847 602.71703308 64.5 650.0625 C64.48114746 650.77414307 64.46229492 651.48578613 64.44287109 652.21899414 C64.51029087 657.56105746 66.05565566 661.78555859 69 666.25 C72.71513977 668.98172042 76.83658323 668.41998074 81.23046875 667.828125 C104.97769704 662.8710167 128.08213758 642.7246251 147 628.25 C148.17041009 627.3604628 149.34097644 626.47113116 150.51171875 625.58203125 C161.38844692 617.29658903 171.88368056 608.56774715 182.29101562 599.70458984 C183.44238858 598.72460698 184.59475354 597.74578855 185.74804688 596.76806641 C193.02898842 590.59535657 200.1883537 584.32207301 207.1953125 577.83984375 C209.82134195 575.41497255 212.46658128 573.01426418 215.125 570.625 C215.94097656 569.89152344 216.75695312 569.15804687 217.59765625 568.40234375 C219.14444459 567.016522 220.69373272 565.63348275 222.24609375 564.25390625 C233.85858459 553.89470278 245.26831653 543.26978203 256.06567383 532.05957031 C257.34127843 530.75371834 258.66617527 529.49632583 260 528.25 C260.66 528.25 261.32 528.25 262 528.25 C262.33 527.26 262.66 526.27 263 525.25 C264.53830528 523.73058319 264.53830528 523.73058319 266.51254272 522.10437012 C271.17291963 518.14655605 275.48329341 513.90736946 279.79931641 509.58007812 C280.6394075 508.74173935 281.4794986 507.90340057 282.345047 507.03965759 C284.6257076 504.76261772 286.90413736 502.48337655 289.18139315 500.20293236 C291.57802936 497.80374284 293.97712901 495.40701856 296.37582397 493.0098877 C300.40045953 488.98706488 304.42299705 484.96215324 308.44433594 480.93603516 C313.0788165 476.29611 317.71689321 471.65980298 322.35684645 467.02535105 C326.35806939 463.02868042 330.35732245 459.0300465 334.35496461 455.02979422 C336.73497898 452.64822918 339.11564392 450.26732502 341.49809647 447.88819885 C344.15432062 445.23452365 346.80730215 442.57764763 349.45947266 439.91992188 C350.62853401 438.75389687 350.62853401 438.75389687 351.82121277 437.5643158 C355.63407817 433.73669625 359.29464855 429.86588564 362.72530174 425.69007111 C364.58477486 423.58935943 366.79735169 421.97640003 369 420.25 C369.556875 419.5075 370.11375 418.765 370.6875 418 C371.3371875 417.13375 371.3371875 417.13375 372 416.25 C372.66 416.25 373.32 416.25 374 416.25 C374.33 415.26 374.66 414.27 375 413.25 C377.4375 410.5625 377.4375 410.5625 380 408.25 C380.66 408.25 381.32 408.25 382 408.25 C382.33 407.26 382.66 406.27 383 405.25 C384.38842773 403.89160156 384.38842773 403.89160156 386.24609375 402.390625 C390.11849361 399.10767223 393.68019793 395.61307774 397.22265625 391.984375 C397.77601654 391.42061157 398.32937683 390.85684814 398.89950562 390.27600098 C401.20722184 387.9236902 403.51222047 385.56903643 405.80297852 383.20019531 C407.49615721 381.45230546 409.20197082 379.71758551 410.91015625 377.984375 C411.41764908 377.45309998 411.92514191 376.92182495 412.44801331 376.37445068 C416.4564667 372.33736635 420.66818016 369.43907567 426.546875 369.10546875 C427.63742187 369.26982422 427.63742187 369.26982422 428.75 369.4375 C429.48734375 369.53417969 430.2246875 369.63085938 430.984375 369.73046875 C433 370.25 433 370.25 436 372.25 C436.69189453 374.91699219 436.69189453 374.91699219 437.1328125 378.296875 C437.38224609 380.15505859 437.38224609 380.15505859 437.63671875 382.05078125 C437.79785156 383.35402344 437.95898438 384.65726562 438.125 386 C438.29386719 387.25683594 438.46273437 388.51367188 438.63671875 389.80859375 C440.83292222 406.63462502 441.24110285 423.24098793 441.25 440.1875 C441.25101212 441.92184296 441.25101212 441.92184296 441.25204468 443.69122314 C441.23504983 462.06312979 440.61839568 480.0402482 438 498.25 C437.82307617 499.49249512 437.64615234 500.73499023 437.46386719 502.01513672 C431.06330473 545.66387741 419.15786202 588.42755961 400 628.25 C399.51660156 629.2591748 399.03320312 630.26834961 398.53515625 631.30810547 C391.40945026 646.09483389 383.75269794 660.36528168 375 674.25 C374.53883789 674.99040527 374.07767578 675.73081055 373.60253906 676.49365234 C366.93947116 687.17394961 359.69847228 697.29512321 352 707.25 C351.31188232 708.1486377 351.31188232 708.1486377 350.60986328 709.06542969 C336.64092052 727.3050359 321.30009837 746.05879792 304 761.25 C303.34 761.25 302.68 761.25 302 761.25 C302 761.91 302 762.57 302 763.25 C300.6015625 764.66015625 300.6015625 764.66015625 298.625 766.3125 C295.47821792 768.98066312 292.40792312 771.70308248 289.375 774.5 C225.3401692 832.11188425 140.28891329 868.25982023 40 880.25 C39.09862305 880.3442627 38.19724609 880.43852539 37.26855469 880.53564453 C25.42301217 881.64257503 13.51121393 881.4939117 1.625 881.5 C-0.14910248 881.50101212 -0.14910248 881.50101212 -1.95904541 881.50204468 C-20.50716074 881.48525721 -38.61164577 880.83437861 -57 878.25 C-58.22025879 878.08902832 -59.44051758 877.92805664 -60.69775391 877.76220703 C-131.63271921 868.2499954 -200.34682487 840.65161126 -258 798.25 C-258.6707959 797.76321777 -259.3415918 797.27643555 -260.03271484 796.77490234 C-273.53412389 786.97419044 -285.97893146 776.13104187 -298.21875 764.8125 C-300.89363211 762.34800188 -303.59773091 759.92039654 -306.3125 757.5 C-315.51920762 749.21545049 -315.51920762 749.21545049 -318 746.25 C-318 745.59 -318 744.93 -318 744.25 C-318.66 744.25 -319.32 744.25 -320 744.25 C-321.65625 742.5703125 -321.65625 742.5703125 -323.5 740.375 C-325.28933258 738.25964496 -327.04019124 736.20980876 -329 734.25 C-328.66630785 730.91307847 -327.25902102 728.68279187 -325 726.25 C-322 726.25 -322 726.25 -320.5625 727.578125 C-320.046875 728.21234375 -319.53125 728.8465625 -319 729.5 C-310.10636012 740.10467842 -300.68725536 750.33006433 -290.17578125 759.3515625 C-287.69347802 761.51745005 -285.28944855 763.75876957 -282.875 766 C-265.19982667 782.07495188 -245.16136046 795.52944972 -225 808.25 C-224.34999023 808.6620166 -223.69998047 809.0740332 -223.03027344 809.49853516 C-203.69350419 821.6787277 -183.05178364 831.43931744 -162 840.25 C-161.19256348 840.58870117 -160.38512695 840.92740234 -159.55322266 841.27636719 C-109.14689038 862.19067891 -54.44555834 871.49547882 -0.0625 871.4375 C1.50694366 871.43659363 1.50694366 871.43659363 3.10809326 871.43566895 C18.17776877 871.41202753 33.03260032 871.14115986 48 869.25 C49.09199707 869.12109375 50.18399414 868.9921875 51.30908203 868.859375 C111.73874427 861.6548451 171.09586089 842.35829749 223 810.25 C223.84530273 809.73066895 224.69060547 809.21133789 225.56152344 808.67626953 C248.01991154 794.82679542 269.19888953 779.29752514 288.62890625 761.41015625 C290.631928 759.58532754 292.66579516 757.81461983 294.71875 756.046875 C299.31750309 752.03255014 303.63375285 747.76376022 307.9375 743.4375 C308.70384766 742.67501953 309.47019531 741.91253906 310.25976562 741.12695312 C310.98744141 740.39798828 311.71511719 739.66902344 312.46484375 738.91796875 C313.120896 738.26078857 313.77694824 737.6036084 314.45288086 736.92651367 C316.08270479 735.31619412 316.08270479 735.31619412 317 733.25 C317.66 733.25 318.32 733.25 319 733.25 C319.35191406 732.41855469 319.35191406 732.41855469 319.7109375 731.5703125 C321.32454292 728.66582275 323.34723795 726.54379995 325.625 724.125 C330.35102967 719.023094 334.7600363 713.76195282 339 708.25 C339.44601562 707.67121094 339.89203125 707.09242188 340.3515625 706.49609375 C347.64371453 697.00069792 354.50325785 687.30413429 361 677.25 C361.46374023 676.54037109 361.92748047 675.83074219 362.40527344 675.09960938 C406.91600314 606.89145044 431.19137712 526.5585365 431.18530273 445.0949707 C431.18747471 441.85028667 431.20564937 438.60595171 431.22460938 435.36132812 C432.533621 412.74685116 432.533621 412.74685116 428 391.25 C422.1040105 396.14848071 416.71203674 401.4709637 411.39379883 406.98120117 C409.96531244 408.44038478 408.48643264 409.84988994 407 411.25 C406.34 411.25 405.68 411.25 405 411.25 C404.73832031 411.84941406 404.47664062 412.44882812 404.20703125 413.06640625 C402.92779812 415.38061764 401.73749558 416.54659445 399.6875 418.1875 C395.80045669 421.39713327 392.20972531 424.6773571 389.125 428.6875 C386.81082562 431.47812204 384.29472177 433.64036499 381.48828125 435.91796875 C379.87117455 437.20079945 379.87117455 437.20079945 379 439.25 C378.34 439.25 377.68 439.25 377 439.25 C377 439.91 377 440.57 377 441.25 C375.54434328 442.47407497 374.0843712 443.69375301 372.59375 444.875 C370.76463911 446.36818763 370.76463911 446.36818763 368.75 449.0625 C368.1725 449.784375 367.595 450.50625 367 451.25 C366.34 451.25 365.68 451.25 365 451.25 C364.72949326 451.84526867 364.45898651 452.44053734 364.18028259 453.05384445 C363.01016373 455.23108831 361.85329924 456.64810748 360.11547852 458.38848877 C359.52662872 458.98297821 358.93777893 459.57746765 358.33108521 460.18997192 C357.68686615 460.83014252 357.04264709 461.47031311 356.37890625 462.12988281 C355.69907684 462.81321686 355.01924744 463.4965509 354.31881714 464.20059204 C352.0717155 466.45649231 349.81738177 468.70500328 347.5625 470.953125 C346.00043931 472.51653256 344.43867565 474.08023693 342.87719727 475.64422607 C339.60529505 478.91907676 336.32980228 482.19028229 333.05175781 485.45898438 C328.84133195 489.65799711 324.63997221 493.86594857 320.4412384 498.07664871 C317.21934087 501.30575616 313.99271614 504.53010596 310.76461792 507.75301361 C309.21293112 509.30336249 307.66273897 510.85520874 306.11404419 512.40854645 C303.95451655 514.57312705 301.78872728 516.73123631 299.62109375 518.88769531 C298.97687469 519.53596283 298.33265564 520.18423035 297.66891479 520.85214233 C293.2285298 525.25 293.2285298 525.25 291 525.25 C290.7525 525.86875 290.505 526.4875 290.25 527.125 C288.79371361 529.60068687 287.62187494 530.20125002 285 531.25 C285 531.91 285 532.57 285 533.25 C284.34 533.25 283.68 533.25 283 533.25 C283 533.91 283 534.57 283 535.25 C281.70703125 536.51953125 281.70703125 536.51953125 279.8125 538.0625 C275.83023229 541.43646394 272.16096953 545.03729651 268.5 548.75 C264.42735613 552.87030432 260.31018723 556.82706798 255.890625 560.578125 C253.66352921 562.54754029 251.58785046 564.63374342 249.5 566.75 C246.19013302 570.09933729 242.79253051 573.24925956 239.21875 576.3125 C237.0160873 578.23595193 234.86703514 580.21089901 232.72363281 582.19995117 C227.53519133 587.01319544 222.22072548 591.57399151 216.703125 596.01171875 C213.94184175 598.29815705 211.31461778 600.68608218 208.6875 603.125 C204.05110514 607.39154 199.22770177 611.30119842 194.24926758 615.15283203 C190.54792807 618.01932445 186.93975084 620.96317418 183.375 624 C175.58163598 630.54851796 167.38266245 636.56387186 159.20263672 642.6171875 C157.45337816 643.9139112 155.71166993 645.22081904 153.97265625 646.53125 C94.57449075 690.82182523 94.57449075 690.82182523 67 687.25 C63.71680983 686.29806912 60.92440576 685.00710094 58 683.25 C57.0925 682.71375 56.185 682.1775 55.25 681.625 C46.21230944 672.08521552 45.37747075 658.92670583 45.6953125 646.44921875 C46.38852762 631.53936469 49.61842495 616.91259491 53.4609375 602.53515625 C53.63012569 601.90074427 53.79931389 601.26633228 53.973629 600.61269569 C58.13850991 585.08545125 63.21343426 569.87496244 68.37417603 554.65578079 C69.66069614 550.85480618 70.93595387 547.05005193 72.21289062 543.24584961 C77.58743909 527.24949407 83.02544031 511.27489031 88.5 495.3125 C108.0698976 445.39688598 108.0698976 445.39688598 117.25 393.1875 C117.28867188 391.68509766 117.28867188 391.68509766 117.328125 390.15234375 C116.94755958 386.78615199 116.01716612 384.94916039 114 382.25 C108.99228924 380.12172293 104.74836628 382.00165798 99.9609375 383.9140625 C83.68927496 391.25563056 68.88654762 403.01870057 56 415.25 C54.54939739 416.57103915 53.09140725 417.88402689 51.625 419.1875 C51.01914062 419.73277344 50.41328125 420.27804687 49.7890625 420.83984375 C47.9475345 422.29135381 46.12861194 423.27946548 44 424.25 C44 424.91 44 425.57 44 426.25 C42.77734375 427.44921875 42.77734375 427.44921875 40.9375 428.9375 C36.42561149 432.76527545 32.2449776 436.88299819 28.0625 441.0625 C27.38759521 441.7330542 26.71269043 442.4036084 26.01733398 443.09448242 C25.38384033 443.72974854 24.75034668 444.36501465 24.09765625 445.01953125 C23.52539307 445.59292236 22.95312988 446.16631348 22.36352539 446.75708008 C20.89937424 448.22377378 20.89937424 448.22377378 20 450.25 C19.34 450.25 18.68 450.25 18 450.25 C18 450.91 18 451.57 18 452.25 C17.34 452.25 16.68 452.25 16 452.25 C15.67708984 453.05244141 15.67708984 453.05244141 15.34765625 453.87109375 C13.50743102 457.11949133 11.00122932 459.63376967 8.4375 462.3125 C3.01331439 468.08736288 -2.04577516 474.06520963 -7 480.25 C-8.07685501 481.57134851 -9.15507559 482.89158486 -10.234375 484.2109375 C-11.38541793 485.61979064 -12.5364596 487.0286448 -13.6875 488.4375 C-14.22238037 489.09081299 -14.75726074 489.74412598 -15.30834961 490.41723633 C-18.46758202 494.29676396 -21.52062678 498.23709389 -24.50610352 502.25170898 C-25.98788159 504.23378997 -27.49282622 506.19555783 -29.0078125 508.15234375 C-36.12275725 517.35358305 -42.94388443 526.71503012 -49.59765625 536.25390625 C-51.35377105 538.75355712 -53.14291031 541.22829875 -54.93408203 543.70288086 C-59.34298229 549.80440722 -63.50959651 556.02641511 -67.5390625 562.38671875 C-69.32117111 565.19798407 -71.13296976 567.9878666 -72.9609375 570.76953125 C-83.95155644 587.50209821 -94.42670545 604.48339211 -104.125 622 C-111.85134805 635.94687743 -119.74927715 649.97229805 -130 662.25 C-130.70125 663.19875 -131.4025 664.1475 -132.125 665.125 C-135.1273597 668.52767433 -137.63449081 670.03151853 -142.125 670.75 C-145 670.25 -145 670.25 -146.64453125 668.109375 C-155.56636572 649.2886752 -140.11531691 618.56527753 -133.6640625 600.39453125 C-127.07630922 581.97860373 -120.18154613 563.673178 -113.29833984 545.36621094 C-111.22959522 539.86395398 -109.16963451 534.35846031 -107.11328125 528.8515625 C-100.93491906 512.3153851 -94.69579771 495.8030865 -88.41351318 479.30612183 C-59.91858622 404.56660205 -59.91858622 404.56660205 -33 329.25 C-32.64355408 328.21870972 -32.28710815 327.18741943 -31.91986084 326.12487793 C-1.09988586 255.91239837 -1.09988586 255.91239837 3.9765625 184.9453125 C3.49316406 184.10613281 3.49316406 184.10613281 3 183.25 C-12.19722438 182.44611659 -24.35815987 194.81110589 -35 204.25 C-35.5770166 204.75789062 -36.1540332 205.26578125 -36.74853516 205.7890625 C-46.54852628 214.48724507 -55.72474292 223.87659069 -65 233.125 C-65.95803528 234.07888107 -65.95803528 234.07888107 -66.9354248 235.05203247 C-75.97045818 244.03503638 -75.97045818 244.03503638 -84.49609375 253.49658203 C-87.22474872 256.67794567 -90.12595145 259.70047652 -93 262.75 C-97.76717286 267.83631154 -102.46054511 272.95866852 -107 278.25 C-107.9720143 279.36904751 -108.94474497 280.48747295 -109.91796875 281.60546875 C-120.43673494 293.69490332 -130.79892935 305.84227921 -140.63378906 318.49707031 C-141.97607108 320.21929777 -143.32616694 321.93503274 -144.6796875 323.6484375 C-150.22205632 330.66628702 -155.67902097 337.74371 -161.09106445 344.86254883 C-164.19335632 348.92997777 -167.34697602 352.94541982 -170.57275391 356.91552734 C-179.71933675 368.17862526 -188.07775835 379.9331459 -195.75 392.25 C-196.36693726 393.2251355 -196.36693726 393.2251355 -196.99633789 394.2199707 C-205.79212809 408.64256891 -211.26456958 424.15932342 -216.43893433 440.15353394 C-218.37644482 446.13983458 -220.35100915 452.11394296 -222.3203125 458.08984375 C-222.71502243 459.29071121 -223.10973236 460.49157867 -223.5164032 461.72883606 C-228.91365722 478.11900969 -234.6412096 494.39321631 -240.38476562 510.66455078 C-241.82599931 514.75006029 -243.25090133 518.84099492 -244.671875 522.93359375 C-283.39176097 633.96459133 -283.39176097 633.96459133 -308 680.25 C-308.31501465 680.848125 -308.6300293 681.44625 -308.95458984 682.0625 C-317.0246154 697.24543709 -327.13861745 712.58256819 -343 720.25 C-343.66 720.58 -344.32 720.91 -345 721.25 C-352.44668998 721.94884321 -358.84023495 721.79897903 -365 717.25 C-369.45512814 712.91528073 -371.89366344 707.50719989 -372.09594727 701.31103516 C-372.01437005 699.10995177 -371.91619934 696.90943707 -371.80371094 694.7097168 C-371.16024081 682.02755345 -371.97416762 674.26476751 -379.60107422 664.21923828 C-382.36885185 660.32309616 -384.55111292 656.07793361 -386.8125 651.875 C-387.56877686 650.47979126 -387.56877686 650.47979126 -388.34033203 649.05639648 C-398.7457866 629.69935966 -407.55745951 609.92557772 -415 589.25 C-415.32838867 588.34330566 -415.65677734 587.43661133 -415.99511719 586.50244141 C-421.30626309 571.68173594 -425.29337577 556.54182083 -429 541.25 C-429.23992676 540.26773438 -429.47985352 539.28546875 -429.72705078 538.2734375 C-433.625493 522.08891111 -436.02698283 505.77076204 -438 489.25 C-438.12004395 488.3027002 -438.24008789 487.35540039 -438.36376953 486.37939453 C-442.14422466 455.724467 -441.6785843 422.88820892 -438 392.25 C-437.80664062 390.61369629 -437.80664062 390.61369629 -437.609375 388.94433594 C-434.20768755 361.10876852 -428.24892102 334.03939232 -420 307.25 C-419.56518311 305.8278418 -419.56518311 305.8278418 -419.12158203 304.37695312 C-414.66135302 289.9521611 -409.03911223 276.0795229 -403 262.25 C-402.34209473 260.7345459 -402.34209473 260.7345459 -401.67089844 259.18847656 C-393.3131378 240.05794764 -383.24102759 222.34892367 -372.25 204.625 C-371.34749512 203.16803711 -371.34749512 203.16803711 -370.42675781 201.68164062 C-366.22602417 194.98894635 -361.70879893 188.59323785 -357 182.25 C-356.01641665 180.9014138 -355.0332912 179.55249342 -354.05078125 178.203125 C-347.13637385 168.81263741 -339.76596428 159.94549126 -332 151.25 C-331.19691406 150.34636719 -330.39382813 149.44273437 -329.56640625 148.51171875 C-327.39015663 146.07943976 -325.19772196 143.66288355 -323 141.25 C-322.13890625 140.29609375 -321.2778125 139.3421875 -320.390625 138.359375 C-311.73915535 128.80687103 -302.84114776 119.5939475 -293 111.25 C-291.91465197 110.31332508 -290.8300864 109.37574314 -289.74609375 108.4375 C-272.79296815 93.7851889 -255.15331881 79.93530372 -236 68.25 C-235.24605957 67.78883789 -234.49211914 67.32767578 -233.71533203 66.85253906 C-228.6232777 63.74740615 -223.5081523 60.68358423 -218.37207031 57.65185547 C-216.91048296 56.78808081 -215.45101692 55.92069037 -213.99511719 55.04736328 C-150.24672575 16.86912251 -73.66533736 0.03560928 0 0 Z M-250 475.25 C-259.76024178 490.17208288 -268.50295262 505.58105914 -277 521.25 C-277.31964722 521.83944397 -277.63929443 522.42888794 -277.96862793 523.03619385 C-285.34842437 536.65796341 -292.605995 550.34205454 -299.72558594 564.10180664 C-302.42444042 569.29914611 -305.20512618 574.43532771 -308.08447266 579.53466797 C-315.51690365 592.73387147 -321.81636793 606.43118745 -328 620.25 C-328.28204285 620.87938477 -328.56408569 621.50876953 -328.85467529 622.15722656 C-346.25844516 656.85711886 -346.25844516 656.85711886 -352 694.25 C-351.34 694.91 -350.68 695.57 -350 696.25 C-344.60651331 695.87680982 -342.14503748 693.15239502 -338.57421875 689.375 C-298.79526877 642.76843482 -280.67434117 566.8353461 -260.2504425 510.20597839 C-258.41194625 505.11134426 -256.5463102 500.02957316 -254.62939453 494.96386719 C-254.25126114 493.95456146 -253.87312775 492.94525574 -253.48353577 491.90536499 C-252.76506227 489.99024948 -252.03815399 488.07826999 -251.30149841 486.17007446 C-250.98358841 485.31779266 -250.66567841 484.46551086 -250.33813477 483.58740234 C-249.91287254 482.47140152 -249.91287254 482.47140152 -249.47901917 481.33285522 C-248.93103054 478.9501093 -249.22595478 477.54297413 -250 475.25 Z " fill="#F0F0F0" transform="translate(443,-0.25)"/>
<path d="M0 0 C1.25254578 -0.00067474 2.50509155 -0.00134949 3.79559326 -0.00204468 C22.39856171 0.01387717 40.57841164 0.47252517 59 3.25 C60.83159668 3.51538574 60.83159668 3.51538574 62.70019531 3.78613281 C138.41474869 14.93818735 210.89506672 44.4806522 271 92.25 C271.83273437 92.90097656 272.66546875 93.55195312 273.5234375 94.22265625 C288.78273982 106.24738154 303.11294936 119.30057869 316.875 133 C317.57665283 133.69697998 318.27830566 134.39395996 319.0012207 135.11206055 C323.53707348 139.66193451 327.82566298 144.36765271 332 149.25 C332.46728516 149.79027832 332.93457031 150.33055664 333.41601562 150.88720703 C340.23880776 158.78582348 346.76478306 166.87922126 353 175.25 C353.49757813 175.91628418 353.99515625 176.58256836 354.5078125 177.26904297 C370.83302605 199.22866674 385.24693911 222.66146845 397.08203125 247.34912109 C397.98437993 249.21765483 398.91166492 251.07193482 399.84375 252.92578125 C413.78470895 281.07087215 423.40765283 311.38630727 430.625 341.875 C431.01534424 343.51142456 431.01534424 343.51142456 431.41357422 345.1809082 C431.75412842 346.68850708 431.75412842 346.68850708 432.1015625 348.2265625 C432.40054443 349.54261475 432.40054443 349.54261475 432.70556641 350.88525391 C433.00979724 353.32868664 432.76553425 354.92920127 432 357.25 C429.36 357.25 426.72 357.25 424 357.25 C423.68869141 355.96996094 423.68869141 355.96996094 423.37109375 354.6640625 C422.268057 350.18730249 421.1398462 345.71751419 420 341.25 C419.75862305 340.30141113 419.51724609 339.35282227 419.26855469 338.37548828 C412.54644008 312.15924133 404.13465091 286.93331827 393 262.25 C392.52691406 261.20070313 392.05382812 260.15140625 391.56640625 259.0703125 C377.40825824 227.99145102 359.31128931 198.93170458 338 172.25 C337.57638184 171.71600586 337.15276367 171.18201172 336.71630859 170.63183594 C332.11859969 164.85068757 327.31939516 159.28328475 322.3359375 153.83203125 C321.04856344 152.40903083 319.76789137 150.97949344 318.51831055 149.52319336 C313.61820392 143.81821755 308.39077733 138.49179408 303.0625 133.1875 C302.20720703 132.32833984 301.35191406 131.46917969 300.47070312 130.58398438 C295.47536179 125.5962637 290.3637435 120.83668188 285 116.25 C283.93984578 115.31296046 282.88117461 114.37423948 281.82421875 113.43359375 C272.33331277 105.08274106 262.28721751 97.58779618 252 90.25 C251.30084473 89.75081055 250.60168945 89.25162109 249.88134766 88.73730469 C239.55809573 81.40886986 228.91147557 74.66669835 218 68.25 C217.30245605 67.83927246 216.60491211 67.42854492 215.88623047 67.00537109 C167.70315687 38.88819795 113.36923132 20.27685266 58 13.25 C56.89333984 13.10191895 55.78667969 12.95383789 54.64648438 12.80126953 C36.43110313 10.4444326 18.34984794 9.96226679 0 9.9375 C-1.06289246 9.93391479 -2.12578491 9.93032959 -3.22088623 9.92663574 C-23.80943072 9.88924903 -44.2241233 11.14680858 -64.5625 14.4375 C-65.54858749 14.59514832 -65.54858749 14.59514832 -66.55459595 14.75598145 C-146.02767237 27.54792517 -220.02878029 61.68578917 -281 114.25 C-282.05767578 115.15492187 -282.05767578 115.15492187 -283.13671875 116.078125 C-295.8131437 127.02715452 -308.44307557 138.5044479 -319.30859375 151.28125 C-321.23867842 153.52781507 -323.24418139 155.69583904 -325.25 157.875 C-333.86852078 167.43318914 -341.5164017 177.79326672 -349 188.25 C-350.15242188 189.81427734 -350.15242188 189.81427734 -351.328125 191.41015625 C-358.12767894 200.68509894 -364.1081152 210.37995668 -370 220.25 C-371.00353516 221.91675781 -371.00353516 221.91675781 -372.02734375 223.6171875 C-373.3565402 225.82521736 -374.68139604 228.03563555 -376 230.25 C-376.66 229.26 -377.32 228.27 -378 227.25 C-377.814375 226.610625 -377.62875 225.97125 -377.4375 225.3125 C-377.293125 224.631875 -377.14875 223.95125 -377 223.25 C-377.515625 222.610625 -378.03125 221.97125 -378.5625 221.3125 C-379.036875 220.631875 -379.51125 219.95125 -380 219.25 C-378.61435323 214.37759501 -375.63598688 210.09433826 -373 205.8125 C-372.50943115 205.01408691 -372.0188623 204.21567383 -371.51342773 203.39306641 C-367.37864645 196.73350716 -362.984996 190.31956418 -358.31542969 184.02587891 C-356.92100363 182.14335196 -355.54259075 180.24966177 -354.1640625 178.35546875 C-347.2317864 168.8998625 -339.80760335 159.99211421 -332 151.25 C-331.19691406 150.34636719 -330.39382813 149.44273437 -329.56640625 148.51171875 C-327.39015663 146.07943976 -325.19772196 143.66288355 -323 141.25 C-322.13890625 140.29609375 -321.2778125 139.3421875 -320.390625 138.359375 C-311.73915535 128.80687103 -302.84114776 119.5939475 -293 111.25 C-291.91465197 110.31332508 -290.8300864 109.37574314 -289.74609375 108.4375 C-272.79296815 93.7851889 -255.15331881 79.93530372 -236 68.25 C-235.24605957 67.78883789 -234.49211914 67.32767578 -233.71533203 66.85253906 C-228.6232777 63.74740615 -223.5081523 60.68358423 -218.37207031 57.65185547 C-216.91048296 56.78808081 -215.45101692 55.92069037 -213.99511719 55.04736328 C-150.24672575 16.86912251 -73.66533736 0.03560928 0 0 Z " fill="#E3E3E3" transform="translate(443,-0.25)"/>
<path d="M0 0 C3 0 3 0 4.4375 1.328125 C4.953125 1.96234375 5.46875 2.5965625 6 3.25 C14.89363988 13.85467842 24.31274464 24.08006433 34.82421875 33.1015625 C37.30652198 35.26745005 39.71055145 37.50876957 42.125 39.75 C59.80017333 55.82495188 79.83863954 69.27944972 100 82 C100.65000977 82.4120166 101.30001953 82.8240332 101.96972656 83.24853516 C121.30649581 95.4287277 141.94821636 105.18931744 163 114 C164.21115479 114.50805176 164.21115479 114.50805176 165.44677734 115.02636719 C215.85310962 135.94067891 270.55444166 145.24547882 324.9375 145.1875 C326.50694366 145.18659363 326.50694366 145.18659363 328.10809326 145.18566895 C343.17776877 145.16202753 358.03260032 144.89115986 373 143 C374.09199707 142.87109375 375.18399414 142.7421875 376.30908203 142.609375 C420.17374986 137.37975267 462.03578014 125.92198826 502.28955078 107.66748047 C504 107 504 107 506 107 C506 108.32 506 109.64 506 111 C508.41880929 113.26877535 508.41880929 113.26877535 511 115 C471.79624568 132.52485706 431.26126967 145.04175638 388.6875 151.25 C387.65294678 151.40114258 386.61839355 151.55228516 385.55249023 151.70800781 C365.72350777 154.41772918 345.99876524 155.37829371 326 155.3125 C324.8422406 155.31067719 323.6844812 155.30885437 322.49163818 155.30697632 C304.14098592 155.25850314 286.19193929 154.5567736 268 152 C266.77974121 151.83902832 265.55948242 151.67805664 264.30224609 151.51220703 C193.36728079 141.9999954 124.65317513 114.40161126 67 72 C66.3292041 71.51321777 65.6584082 71.02643555 64.96728516 70.52490234 C51.46587611 60.72419044 39.02106854 49.88104187 26.78125 38.5625 C24.10636789 36.09800188 21.40226909 33.67039654 18.6875 31.25 C9.48079238 22.96545049 9.48079238 22.96545049 7 20 C7 19.34 7 18.68 7 18 C6.34 18 5.68 18 5 18 C3.34375 16.3203125 3.34375 16.3203125 1.5 14.125 C-0.28933258 12.00964496 -2.04019124 9.95980876 -4 8 C-3.66630785 4.66307847 -2.25902102 2.43279187 0 0 Z " fill="#E2E2E2" transform="translate(118,726)"/>
<path d="M0 0 C0.66 0.33 1.32 0.66 2 1 C1.2265625 2.0828125 1.2265625 2.0828125 0.4375 3.1875 C-1.3165969 5.8629132 -1.3165969 5.8629132 -0.3996582 8.44897461 C0 11 0 11 -1.19995117 12.88110352 C-1.80814697 13.45787842 -2.41634277 14.03465332 -3.04296875 14.62890625 C-3.70490234 15.27150391 -4.36683594 15.91410156 -5.04882812 16.57617188 C-5.75458984 17.23166016 -6.46035156 17.88714844 -7.1875 18.5625 C-7.87392578 19.22185547 -8.56035156 19.88121094 -9.26757812 20.56054688 C-10.5884083 21.82788152 -11.91483304 23.08941874 -13.24755859 24.34423828 C-15.20346987 26.19224473 -17.11201009 28.08273893 -19 30 C-21.22189824 27.77810176 -21.92598892 25.91517292 -23 23 C-21.625 21.5 -21.625 21.5 -20 20 C-19.34 20 -18.68 20 -18 20 C-18 19.01 -18 18.02 -18 17 C-17.01 17 -16.02 17 -15 17 C-14.34 15.68 -13.68 14.36 -13 13 C-12.34 13 -11.68 13 -11 13 C-9.87249233 10.82552092 -8.96477277 8.87190097 -8.3125 6.5 C-6.33020529 2.72420056 -3.83914946 1.78246225 0 0 Z " fill="#EBEBEB" transform="translate(144,119)"/>
<path d="M0 0 C0.495 1.485 0.495 1.485 1 3 C0.21625 3.763125 -0.5675 4.52625 -1.375 5.3125 C-4.07257717 7.90891805 -4.07257717 7.90891805 -6 11 C-6.99 11 -7.98 11 -9 11 C-9 11.99 -9 12.98 -9 14 C-11 15.6875 -11 15.6875 -13 17 C-12.67 17.7425 -12.34 18.485 -12 19.25 C-11 22 -11 22 -11 26 C-11.99 26.66 -12.98 27.32 -14 28 C-15.32 26.68 -16.64 25.36 -18 24 C-19.79249657 25.70287174 -21.3393232 27.42980939 -22.875 29.375 C-25.09433952 32.11653705 -27.47563323 34.5387424 -30 37 C-30.763125 37.763125 -31.52625 38.52625 -32.3125 39.3125 C-32.869375 39.869375 -33.42625 40.42625 -34 41 C-34.66 40.67 -35.32 40.34 -36 40 C-29.10438357 31.90260947 -22.17212861 23.85518848 -15 16 C-14.54173828 15.49662109 -14.08347656 14.99324219 -13.61132812 14.47460938 C-12.1382014 12.85671322 -10.66325639 11.24049767 -9.1875 9.625 C-8.73109131 9.12468262 -8.27468262 8.62436523 -7.80444336 8.10888672 C-5.26580609 5.33852799 -2.67879598 2.63508602 0 0 Z " fill="#DEDEDE" transform="translate(135,125)"/>
<path d="M0 0 C0 3 0 3 -2.66796875 5.9609375 C-3.83364975 7.1066354 -5.00720588 8.24436227 -6.1875 9.375 C-6.76564453 9.93960937 -7.34378906 10.50421875 -7.93945312 11.0859375 C-9.03588287 12.15635027 -10.13538164 13.22363565 -11.23901367 14.28662109 C-13.51572236 16.50178005 -15.75647799 18.75119774 -18 21 C-19.26002772 22.26031732 -20.52021447 23.52047565 -21.78051758 24.78051758 C-22.48086624 25.48086624 -23.1812149 26.1812149 -23.90278625 26.90278625 C-33.6018575 36.6018575 -43.30092875 46.30092875 -53 56 C-53.66 55.67 -54.32 55.34 -55 55 C-54.5467334 54.55197021 -54.0934668 54.10394043 -53.62646484 53.64233398 C-51.53991414 51.5767924 -49.45744503 49.50718048 -47.375 47.4375 C-46.66214844 46.73302734 -45.94929687 46.02855469 -45.21484375 45.30273438 C-41.38247323 41.48794354 -37.71308962 37.62852144 -34.28051758 33.44824219 C-32.41959229 31.34356939 -30.20573114 29.7288163 -28 28 C-27.443125 27.2575 -26.88625 26.515 -26.3125 25.75 C-25.879375 25.1725 -25.44625 24.595 -25 24 C-24.34 24 -23.68 24 -23 24 C-22.505 22.515 -22.505 22.515 -22 21 C-19.5625 18.3125 -19.5625 18.3125 -17 16 C-16.34 16 -15.68 16 -15 16 C-14.67 15.01 -14.34 14.02 -14 13 C-12.36328125 11.38671875 -12.36328125 11.38671875 -10.3125 9.6875 C-6.68248665 6.61343464 -3.32096428 3.40398838 0 0 Z " fill="#C1C1C1" transform="translate(840,392)"/>
<path d="M0 0 C0.66 0.33 1.32 0.66 2 1 C-4.64826199 8.46981528 -11.46051753 15.41154647 -19 22 C-21.04962443 23.84546003 -23.0876625 25.70349534 -25.125 27.5625 C-26.05570313 28.40941406 -26.98640625 29.25632812 -27.9453125 30.12890625 C-28.62335937 30.74636719 -29.30140625 31.36382813 -30 32 C-30.66 31.67 -31.32 31.34 -32 31 C-30.83687329 29.80903249 -29.66923328 28.62247296 -28.5 27.4375 C-27.8503125 26.77621094 -27.200625 26.11492188 -26.53125 25.43359375 C-24.4818268 23.4632378 -22.4023637 21.60363046 -20.25 19.75 C-15.79713156 15.88284383 -11.64366759 11.75604507 -7.5 7.5625 C-6.77296875 6.83095703 -6.0459375 6.09941406 -5.296875 5.34570312 C-3.52890501 3.56610176 -1.76333622 1.78419082 0 0 Z " fill="#A6A6A6" transform="translate(703,528)"/>
<path d="M0 0 C0 3 0 3 -2.66796875 5.9609375 C-3.83364975 7.1066354 -5.00720588 8.24436227 -6.1875 9.375 C-7.0547168 10.22191406 -7.0547168 10.22191406 -7.93945312 11.0859375 C-9.08442666 12.20374217 -10.23242645 13.31845607 -11.38354492 14.42993164 C-12.83439338 15.83914573 -14.26250462 17.2716798 -15.6875 18.70703125 C-17.66923284 20.67202648 -19.68030549 22.51476738 -21.8125 24.3125 C-22.41707031 24.82425781 -23.02164063 25.33601563 -23.64453125 25.86328125 C-24.09183594 26.23839844 -24.53914062 26.61351562 -25 27 C-25.66 26.67 -26.32 26.34 -27 26 C-26.360625 25.731875 -25.72125 25.46375 -25.0625 25.1875 C-22.66868314 24.11332248 -22.66868314 24.11332248 -22 21 C-19.5625 18.3125 -19.5625 18.3125 -17 16 C-16.34 16 -15.68 16 -15 16 C-14.67 15.01 -14.34 14.02 -14 13 C-12.36328125 11.38671875 -12.36328125 11.38671875 -10.3125 9.6875 C-6.68248665 6.61343464 -3.32096428 3.40398838 0 0 Z " fill="#B2B2B2" transform="translate(840,392)"/>
<path d="M0 0 C0.66 0.66 1.32 1.32 2 2 C1.43152344 2.556875 0.86304688 3.11375 0.27734375 3.6875 C-4.22912006 8.14130063 -8.51145716 12.63376213 -12.4921875 17.56640625 C-14 19 -14 19 -17 19 C-16.19175781 18.13117188 -15.38351562 17.26234375 -14.55078125 16.3671875 C-13.47127513 15.20319829 -12.3918525 14.03913165 -11.3125 12.875 C-10.78205078 12.30523437 -10.25160156 11.73546875 -9.70507812 11.1484375 C-6.34790794 7.52351755 -3.13096309 3.82221468 0 0 Z " fill="#B5B5B5" transform="translate(449,435)"/>
<path d="M0 0 C0.66 0.33 1.32 0.66 2 1 C0.10730953 2.91985828 -1.78899017 4.83591037 -3.6875 6.75 C-4.21794922 7.28882813 -4.74839844 7.82765625 -5.29492188 8.3828125 C-8.37931499 11.48612827 -11.51576273 14.33672402 -15 17 C-15.66 16.67 -16.32 16.34 -17 16 C-12.35344118 11.24222036 -7.61171109 6.68207665 -2.56640625 2.34765625 C-1.68751602 1.59150381 -0.81982149 0.81982149 0 0 Z " fill="#B5B5B5" transform="translate(688,543)"/>
<path d="M0 0 C0 4.61134436 -2.9044754 6.79165446 -6 10 C-9.33175232 13.19814822 -12.55576347 15.56215877 -17 17 C-13.63553776 12.68928276 -10.03040929 9.15931397 -5.87109375 5.61328125 C-3.81073837 3.83681618 -1.88376398 1.96225415 0 0 Z " fill="#BFBFBF" transform="translate(746,748)"/>
<path d="M0 0 C0 4.05617731 -1.58760644 5.34709773 -4.2109375 8.28125 C-7.60933726 11.5460882 -11.16355131 14 -16 14 C-14.2725597 12.4147483 -12.54312043 10.83177374 -10.8125 9.25 C-9.36810547 7.92742188 -9.36810547 7.92742188 -7.89453125 6.578125 C-5.32582261 4.29020637 -2.70839628 2.11918393 0 0 Z " fill="#B4B4B4" transform="translate(641,586)"/>
<path d="M0 0 C0.66 0.33 1.32 0.66 2 1 C-3.45993937 5.97966692 -8.99926777 10.68339698 -15 15 C-15 12 -15 12 -13.73071289 10.66552734 C-13.1505542 10.2267627 -12.57039551 9.78799805 -11.97265625 9.3359375 C-11.34552734 8.85382812 -10.71839844 8.37171875 -10.07226562 7.875 C-9.40904297 7.38 -8.74582031 6.885 -8.0625 6.375 C-6.76153094 5.38305878 -5.46074045 4.39088329 -4.16015625 3.3984375 C-2.59587891 2.21121094 -2.59587891 2.21121094 -1 1 C-0.67 0.67 -0.34 0.34 0 0 Z " fill="#A4A4A4" transform="translate(719,772)"/>
<path d="M0 0 C0.33 0.99 0.66 1.98 1 3 C0.21625 3.763125 -0.5675 4.52625 -1.375 5.3125 C-4.07257717 7.90891805 -4.07257717 7.90891805 -6 11 C-8.625 11.6875 -8.625 11.6875 -11 12 C-7.49102731 7.81576108 -3.91939465 3.80411834 0 0 Z " fill="#B4B4B4" transform="translate(135,125)"/>
<path d="M0 0 C0.33 0.99 0.66 1.98 1 3 C-3.29 7.29 -7.58 11.58 -12 16 C-12.66 15.67 -13.32 15.34 -14 15 C-13.36191406 14.37351562 -12.72382812 13.74703125 -12.06640625 13.1015625 C-11.24011719 12.28429687 -10.41382813 11.46703125 -9.5625 10.625 C-8.73878906 9.81289063 -7.91507813 9.00078125 -7.06640625 8.1640625 C-4.96565328 6.17651485 -4.96565328 6.17651485 -4 4 C-3.34 4 -2.68 4 -2 4 C-1.34 2.68 -0.68 1.36 0 0 Z " fill="#B6B6B6" transform="translate(764,729)"/>
<path d="M0 0 C0.66 0.33 1.32 0.66 2 1 C-0.8920004 4.69533384 -2.77539218 6.96053416 -7 9 C-8.26804566 11.0335948 -8.26804566 11.0335948 -9 13 C-9.66 13 -10.32 13 -11 13 C-11.33 12.01 -11.66 11.02 -12 10 C-8.04 6.7 -4.08 3.4 0 0 Z " fill="#BCBCBC" transform="translate(508,381)"/>
<path d="M0 0 C0.33 0.99 0.66 1.98 1 3 C-1.64 5.97 -4.28 8.94 -7 12 C-7.66 11.67 -8.32 11.34 -9 11 C-6.03 7.37 -3.06 3.74 0 0 Z " fill="#C1C1C1" transform="translate(108,154)"/>
<path d="M0 0 C1.67542976 0.28604898 3.34385343 0.61781233 5 1 C3.25 4.875 3.25 4.875 1 6 C0.34 4.35 -0.32 2.7 -1 1 C-0.67 0.67 -0.34 0.34 0 0 Z " fill="#D7D7D7" transform="translate(120,147)"/>
<path d="M0 0 C0.66 0.33 1.32 0.66 2 1 C-1.96 4.465 -1.96 4.465 -6 8 C-6.66 7.67 -7.32 7.34 -8 7 C-7.360625 6.731875 -6.72125 6.46375 -6.0625 6.1875 C-3.66868314 5.11332248 -3.66868314 5.11332248 -3 2 C-2.01 1.34 -1.02 0.68 0 0 Z " fill="#ABABAB" transform="translate(821,411)"/>
<path d="M0 0 C0.33 1.32 0.66 2.64 1 4 C0.34 4 -0.32 4 -1 4 C-1 4.66 -1 5.32 -1 6 C-2.98 6.66 -4.96 7.32 -7 8 C-6.02133662 6.85373678 -5.04205413 5.70800212 -4.0625 4.5625 C-3.51722656 3.92441406 -2.97195313 3.28632813 -2.41015625 2.62890625 C-1.63204305 1.73008851 -0.84063472 0.84063472 0 0 Z " fill="#B2B2B2" transform="translate(736,496)"/>
<path d="M0 0 C0.33 1.32 0.66 2.64 1 4 C0.34 4 -0.32 4 -1 4 C-1 4.66 -1 5.32 -1 6 C-2.98 6.66 -4.96 7.32 -7 8 C-6.02133662 6.85373678 -5.04205413 5.70800212 -4.0625 4.5625 C-3.51722656 3.92441406 -2.97195313 3.28632813 -2.41015625 2.62890625 C-1.63204305 1.73008851 -0.84063472 0.84063472 0 0 Z " fill="#B4B4B4" transform="translate(768,464)"/>
<path d="M0 0 C0.33 1.32 0.66 2.64 1 4 C0.34 4 -0.32 4 -1 4 C-1 4.66 -1 5.32 -1 6 C-2.98 6.66 -4.96 7.32 -7 8 C-6.02133662 6.85373678 -5.04205413 5.70800212 -4.0625 4.5625 C-3.51722656 3.92441406 -2.97195313 3.28632813 -2.41015625 2.62890625 C-1.63204305 1.73008851 -0.84063472 0.84063472 0 0 Z " fill="#B4B4B4" transform="translate(856,376)"/>
<path d="M0 0 C0.33 0.99 0.66 1.98 1 3 C-0.75 6.1875 -0.75 6.1875 -3 9 C-3.99 9 -4.98 9 -6 9 C-4.47291037 5.56404834 -2.40072955 2.88087546 0 0 Z " fill="#BABABA" transform="translate(272,326)"/>
<path d="M0 0 C0.33 0.99 0.66 1.98 1 3 C-0.231394 5.46278801 -1.78064923 6.42497687 -4 8 C-4.66 7.67 -5.32 7.34 -6 7 C-4.02 4.69 -2.04 2.38 0 0 Z " fill="#B1B1B1" transform="translate(352,230)"/>
<path d="M0 0 C0 3 0 3 -1.53125 4.60546875 C-2.1809375 5.12753906 -2.830625 5.64960937 -3.5 6.1875 C-4.1496875 6.71730469 -4.799375 7.24710937 -5.46875 7.79296875 C-5.9740625 8.19128906 -6.479375 8.58960937 -7 9 C-7.66 8.67 -8.32 8.34 -9 8 C-6.03 5.36 -3.06 2.72 0 0 Z " fill="#ADADAD" transform="translate(148,113)"/>
<path d="M0 0 C0.33 0.66 0.66 1.32 1 2 C-0.98 4.64 -2.96 7.28 -5 10 C-5.66 9.67 -6.32 9.34 -7 9 C-4.69 6.03 -2.38 3.06 0 0 Z " fill="#A7A7A7" transform="translate(780,710)"/>
<path d="M0 0 C0.33 1.32 0.66 2.64 1 4 C-0.98 5.32 -2.96 6.64 -5 8 C-5.66 7.67 -6.32 7.34 -7 7 C-4.69 4.69 -2.38 2.38 0 0 Z " fill="#AFAFAF" transform="translate(752,480)"/>
<path d="M0 0 C0.33 1.32 0.66 2.64 1 4 C-0.98 5.32 -2.96 6.64 -5 8 C-5.66 7.67 -6.32 7.34 -7 7 C-4.69 4.69 -2.38 2.38 0 0 Z " fill="#B0B0B0" transform="translate(760,472)"/>
<path d="M0 0 C0.99 0.33 1.98 0.66 3 1 C0.69 3.31 -1.62 5.62 -4 8 C-4.66 7.67 -5.32 7.34 -6 7 C-4.02 4.69 -2.04 2.38 0 0 Z " fill="#BBBBBB" transform="translate(438,447)"/>
<path d="M0 0 C0.66 0.99 1.32 1.98 2 3 C1 5 1 5 -2.0625 6.125 C-3.031875 6.41375 -4.00125 6.7025 -5 7 C-1.125 1.125 -1.125 1.125 0 0 Z " fill="#B6B6B6" transform="translate(431,455)"/>
<path d="M0 0 C0.66 1.32 1.32 2.64 2 4 C1.360625 4.28875 0.72125 4.5775 0.0625 4.875 C-2.15206079 5.82823451 -2.15206079 5.82823451 -3 8 C-3.66 7.67 -4.32 7.34 -5 7 C-3.35 4.69 -1.7 2.38 0 0 Z " fill="#B8B8B8" transform="translate(797,688)"/>
<path d="M0 0 C3.39914975 1.13304992 4.05254451 2.12518475 6 5 C5.67 5.66 5.34 6.32 5 7 C4.34 7 3.68 7 3 7 C3 6.34 3 5.68 3 5 C2.34 5 1.68 5 1 5 C0.67 3.35 0.34 1.7 0 0 Z " fill="#BEBEBE" transform="translate(459,162)"/>
<path d="" fill="#222222" transform="translate(0,0)"/>
<path d="" fill="#262626" transform="translate(0,0)"/>
</svg>
