<svg id="visual" viewBox="0 0 900 600" width="900" height="600" xmlns="http://www.w3.org/2000/svg" xmlns:xlink="http://www.w3.org/1999/xlink" version="1.1"><rect x="0" y="0" width="900" height="600" fill="#DEDCDD"></rect><path d="M414 600L433.8 575C453.7 550 493.3 500 483.3 450C473.3 400 413.7 350 387.8 300C362 250 370 200 383.8 150C397.7 100 417.3 50 427.2 25L437 0L900 0L900 25C900 50 900 100 900 150C900 200 900 250 900 300C900 350 900 400 900 450C900 500 900 550 900 575L900 600Z" fill="#FFFFFF" stroke-linecap="round" stroke-linejoin="miter"></path></svg>