<svg id="visual" viewBox="0 0 900 600" width="900" height="600" xmlns="http://www.w3.org/2000/svg" xmlns:xlink="http://www.w3.org/1999/xlink" version="1.1"><path d="M204 0L203.7 20C203.3 40 202.7 80 189.7 120C176.7 160 151.3 200 158.8 240C166.3 280 206.7 320 210.7 360C214.7 400 182.3 440 160.2 480C138 520 126 560 120 580L114 600L0 600L0 580C0 560 0 520 0 480C0 440 0 400 0 360C0 320 0 280 0 240C0 200 0 160 0 120C0 80 0 40 0 20L0 0Z" fill="#FFFFFF" stroke-linecap="round" stroke-linejoin="miter"></path></svg>