<svg id="visual" viewBox="0 0 600 900" width="600" height="900" xmlns="http://www.w3.org/2000/svg" xmlns:xlink="http://www.w3.org/1999/xlink" version="1.1"><rect x="0" y="0" width="600" height="900" fill="#dff2fe"></rect><path d="M0 412L25 431.8C50 451.7 100 491.3 150 481.3C200 471.3 250 411.7 300 385.8C350 360 400 368 450 381.8C500 395.7 550 415.3 575 425.2L600 435L600 901L575 901C550 901 500 901 450 901C400 901 350 901 300 901C250 901 200 901 150 901C100 901 50 901 25 901L0 901Z" fill="#FFFFFF" stroke-linecap="round" stroke-linejoin="miter"></path></svg>