<svg id="visual" viewBox="0 0 600 900" width="600" height="900" xmlns="http://www.w3.org/2000/svg" xmlns:xlink="http://www.w3.org/1999/xlink" version="1.1"><path d="M506 900L494.8 870C483.7 840 461.3 780 443.5 720C425.7 660 412.3 600 415 540C417.7 480 436.3 420 454.7 360C473 300 491 240 491 180C491 120 473 60 464 30L455 0L600 0L600 30C600 60 600 120 600 180C600 240 600 300 600 360C600 420 600 480 600 540C600 600 600 660 600 720C600 780 600 840 600 870L600 900Z" fill="#FFFFFF" stroke-linecap="round" stroke-linejoin="miter"></path></svg>