<svg xmlns="http://www.w3.org/2000/svg" version="1.1" xmlns:xlink="http://www.w3.org/1999/xlink" width="512" height="512" x="0" y="0" viewBox="0 0 24 24" style="enable-background:new 0 0 512 512" xml:space="preserve"><g><path d="M11 12a1 1 0 0 1 0 2H8a1 1 0 0 1 0-2zm6-3a1 1 0 0 0-1-1H8a1 1 0 0 0 0 2h8a1 1 0 0 0 1-1zM8 6h8a1 1 0 0 0 0-2H8a1 1 0 0 0 0 2zm12 13.444v3.833a.721.721 0 0 1-1.231.51L18 23.019l-.769.768a.721.721 0 0 1-1.231-.51v-3.833A3.987 3.987 0 0 1 18 12a3.939 3.939 0 0 1 1 .142V5a3 3 0 0 0-3-3H8a3 3 0 0 0-3 3v12a3 3 0 0 0 3 3h5a1 1 0 0 1 0 2H8a5.006 5.006 0 0 1-5-5V5a5.006 5.006 0 0 1 5-5h8a5.006 5.006 0 0 1 5 5v8.382a3.95 3.95 0 0 1-1 6.062zM20 16a2 2 0 1 0-2 2 2 2 0 0 0 2-2z" fill="#e60283" opacity="1" data-original="#000000"></path></g></svg>